<?xml version="1.0" encoding="UTF-8" standalone="no"?>
<svg width="271px" height="46px" viewBox="0 0 271 46" version="1.1" xmlns="http://www.w3.org/2000/svg"
     xmlns:xlink="http://www.w3.org/1999/xlink" xmlns:sketch="http://www.bohemiancoding.com/sketch/ns">
    <!-- Generator: Sketch 3.4 (15588) - http://www.bohemiancoding.com/sketch -->
    <title>Fill 1</title>
    <desc>Created with Sketch.</desc>
    <defs></defs>
    <g id="Page-1" stroke="none" stroke-width="1" fill="none" fill-rule="evenodd" sketch:type="MSPage">
        <g id="Home" sketch:type="MSArtboardGroup" transform="translate(-122.000000, -105.000000)" fill="#DA5A47">
            <g id="top" sketch:type="MSLayerGroup" transform="translate(-9.000000, -1.000000)">
                <path d="M209.980532,125.63062 L216.749145,125.63062 L217.536596,121.490798 L210.768896,121.490798 L211.922242,115.437552 L211.899431,115.437552 L206.766855,119.463316 L206.380886,121.490798 L201.064906,121.490798 L202.618822,113.334337 C202.984717,110.256616 207.671101,111.188236 208.370044,111.362515 L209.118259,107.431646 C200.690798,104.192421 198.229899,113.334337 198.229899,113.334337 L196.676896,121.490798 L196.649522,121.490798 L191.370953,125.63062 L195.888532,125.63062 L190.924761,151.68403 L195.313684,151.68403 L200.276542,125.63062 L205.592522,125.63062 L203.649899,135.829162 C202.414431,143.253832 209.851875,142.440832 212.224266,141.963616 L212.966094,138.074721 C207.288781,139.356724 208.037909,135.829162 208.037909,135.829162 L209.980532,125.63062 Z M185.03302,130.672862 C185.03302,130.672862 178.745273,127.446411 174.343576,131.03967 C174.343576,131.03967 171.765882,132.758741 171.765882,136.19597 C171.765882,139.634111 174.916599,141.482751 174.916599,141.482751 C174.916599,141.482751 179.656818,143.982886 183.367785,139.98632 L182.958091,141.846822 L187.107949,141.846822 L189.716667,129.47298 C191.673889,117.26338 177.127485,121.590256 177.127485,121.590256 L176.334559,125.980091 C187.057764,121.306481 185.25201,129.449256 185.25201,129.449256 L185.03302,130.672862 Z M184.022017,136.324626 C179.456077,141.010098 176.53165,137.941502 176.53165,137.941502 C174.551616,136.014391 176.73969,134.034357 176.73969,134.034357 C179.760838,131.274172 184.38335,134.307182 184.38335,134.307182 L184.022017,136.324626 Z M173.410131,121.503572 C170.025825,121.539158 166.950842,123.427946 166.950842,123.427946 L167.343199,121.575657 L163.280936,121.575657 L159.574532,141.884232 L163.725303,141.884232 L166.238212,128.523111 C168.095064,124.749185 172.687465,125.921694 172.687465,125.921694 L173.410131,121.503572 Z M157.572599,112.800549 C157.782465,112.959316 157.98138,113.127209 158.176646,113.297838 L161.327364,110.82599 L161.424997,110.698246 C160.943219,110.210993 160.424943,109.750202 159.863781,109.326822 C152.634377,103.869411 141.709519,106.154205 135.464657,114.429286 C129.219795,122.704367 130.017283,133.833616 137.247599,139.291939 C143.15029,143.747471 151.514791,143.040316 157.786114,138.127643 L157.779727,138.114869 L154.780478,135.762552 C150.134242,138.750852 144.368421,138.965279 140.198488,135.818212 C134.644357,131.62638 134.032098,123.075737 138.828889,116.719556 C143.626593,110.363374 152.018468,108.608717 157.572599,112.800549 Z M238.013064,140.206222 C237.12433,140.771946 236.147088,141.235475 235.085899,141.594071 C234.022886,141.952667 232.875013,142.130596 231.640458,142.125121 C230.183263,142.118734 228.839212,141.851384 227.606481,141.323983 C226.372838,140.79567 225.3153,140.071178 224.433865,139.148684 C223.551519,138.226189 222.858963,137.146751 222.358936,135.909458 C221.857084,134.672165 221.609808,133.341801 221.616195,131.916542 C221.62167,130.492195 221.873508,129.155444 222.369886,127.90629 C222.866263,126.65896 223.567943,125.569485 224.474013,124.638778 C225.380084,123.708983 226.452222,122.977192 227.689515,122.444316 C228.926808,121.911441 230.274508,121.647741 231.730791,121.65504 C232.966259,121.660515 234.112306,121.847569 235.17167,122.216202 C236.230121,122.584835 237.202801,123.056576 238.086061,123.630512 L237.273973,124.81397 C236.483785,124.304818 235.639761,123.880525 234.73734,123.544741 C233.837657,123.208044 232.832128,123.037414 231.725316,123.031939 C230.457912,123.026465 229.300916,123.251842 228.254327,123.705333 C227.207737,124.16065 226.309879,124.773822 225.562576,125.545761 C224.81436,126.318613 224.233125,127.242933 223.817044,128.315983 C223.400963,129.391771 223.189273,130.54603 223.183798,131.780586 C223.179236,133.016054 223.379064,134.18035 223.78602,135.274387 C224.192064,136.369337 224.766912,137.32103 225.506916,138.132205 C226.247832,138.942468 227.138391,139.580276 228.182242,140.043805 C229.224269,140.508246 230.379441,140.741835 231.646845,140.74731 C232.754569,140.752785 233.76101,140.591279 234.663431,140.262795 C235.568589,139.93431 236.416263,139.518229 237.211013,139.015465 L238.013064,140.206222 Z M259.94399,131.943916 C259.938515,133.368263 259.686677,134.714138 259.1903,135.977892 C258.693923,137.242559 258.015966,138.331121 257.158256,139.245404 C256.298721,140.160599 255.274943,140.884178 254.085098,141.417054 C252.895253,141.949929 251.603212,142.21363 250.210801,142.207242 C248.816566,142.200855 247.535475,141.934418 246.366616,141.407017 C245.196845,140.878704 244.194966,140.155125 243.36098,139.231717 C242.525168,138.310135 241.872761,137.223397 241.403758,135.96968 C240.933842,134.717788 240.703902,133.3783 240.709377,131.95304 C240.715764,130.528694 240.965778,129.192855 241.46398,127.9437 C241.958532,126.695458 242.637401,125.605983 243.496024,124.675276 C244.353734,123.745481 245.371125,123.02099 246.545458,122.503626 C247.717966,121.986263 249.002707,121.730774 250.396943,121.737162 C251.789354,121.743549 253.069532,122.009987 254.239303,122.537387 C255.408162,123.0657 256.418253,123.782892 257.269576,124.688051 C258.120899,125.595034 258.780606,126.674471 259.250522,127.927276 C259.719525,129.180993 259.950377,130.518657 259.94399,131.943916 Z M258.3773,131.984064 C258.382774,130.749508 258.197545,129.593424 257.822525,128.514899 C257.446593,127.437286 256.905505,126.500192 256.196525,125.705441 C255.487545,124.911603 254.63531,124.282007 253.639818,123.817566 C252.644327,123.354949 251.544815,123.119535 250.342195,123.114061 C249.138663,123.108586 248.045539,123.333963 247.061909,123.789279 C246.078279,124.243684 245.227869,124.86598 244.512502,125.653431 C243.796222,126.442707 243.24601,127.374327 242.861865,128.44829 C242.477721,129.524077 242.281542,130.678337 242.276067,131.912892 C242.270593,133.147448 242.455822,134.312657 242.830842,135.405781 C243.205862,136.500731 243.73965,137.445125 244.433118,138.238963 C245.126586,139.034626 245.970609,139.664222 246.966101,140.126838 C247.961593,140.591279 249.060192,140.824869 250.263724,140.829431 C251.466343,140.834906 252.56038,140.611354 253.54401,140.156037 C254.526727,139.701633 255.378051,139.072037 256.09433,138.267249 C256.809697,137.462461 257.367209,136.524455 257.76869,135.448667 C258.168347,134.374704 258.371825,133.21862 258.3773,131.984064 Z M291.817057,142.011064 L291.875455,128.76035 C291.890966,125.150667 290.347088,123.338525 287.243818,123.324838 C285.819471,123.318451 284.456259,123.724495 283.154182,124.542057 C281.852104,125.35962 280.69237,126.447269 279.673155,127.804094 L279.610195,141.957229 L278.090953,141.949929 L278.150263,128.699215 C278.164862,125.089532 276.621896,123.278303 273.518626,123.263704 C272.062343,123.257316 270.706431,123.66336 269.452714,124.480923 C268.198084,125.299397 267.030138,126.307663 265.947963,127.505721 L265.885003,141.896094 L264.365761,141.889707 L264.453357,122.178791 L265.925152,122.186091 L265.908727,125.89067 C266.354007,125.386081 266.863158,124.889704 267.435269,124.400626 C268.006468,123.913374 268.617815,123.479956 269.26931,123.103111 C269.919892,122.726266 270.627047,122.420593 271.387125,122.186091 C272.148114,121.952502 272.940128,121.83662 273.764077,121.840269 C275.093529,121.846657 276.262387,122.21529 277.272478,122.948906 C278.281657,123.681609 278.957788,124.808495 279.299047,126.329562 C280.254391,125.130593 281.447886,124.091303 282.875882,123.210781 C284.304791,122.330259 285.842283,121.894104 287.489269,121.901404 C288.28037,121.905054 289.031323,122.034623 289.743953,122.291024 C290.453845,122.548337 291.084354,122.95438 291.638215,123.51098 C292.188428,124.067579 292.620933,124.766522 292.933906,125.605983 C293.246879,126.447269 293.400172,127.45371 293.395609,128.624394 L293.3363,142.018364 L291.817057,142.011064 Z M326.250481,142.163444 L326.309791,128.911818 C326.325303,125.302135 324.780512,123.490906 321.678155,123.477219 C320.252896,123.470832 318.889684,123.876875 317.587606,124.694438 C316.285529,125.512 315.125795,126.59965 314.106579,127.955562 L314.044532,142.109609 L312.524377,142.10231 L312.583687,128.851596 C312.598286,125.241912 311.054407,123.429771 307.952051,123.416084 C306.494855,123.409697 305.139855,123.815741 303.886138,124.633303 C302.631508,125.451778 301.46265,126.460044 300.381387,127.658101 L300.317515,142.048475 L298.799185,142.042088 L298.885869,122.331172 L300.357663,122.338471 L300.341239,126.043051 C300.786519,125.538461 301.29567,125.042084 301.868694,124.553007 C302.439892,124.064842 303.051239,123.632337 303.701822,123.255492 C304.352404,122.877734 305.059559,122.572973 305.820549,122.338471 C306.581539,122.10397 307.37264,121.989 308.196589,121.99265 C309.52604,121.998125 310.694899,122.36767 311.705902,123.100374 C312.715081,123.83399 313.392125,124.960875 313.733384,126.481943 C314.688727,125.282973 315.88131,124.243684 317.310219,123.363162 C318.738215,122.48264 320.275707,122.045572 321.922694,122.052872 C322.713795,122.056522 323.46566,122.187003 324.177377,122.443404 C324.887269,122.700717 325.51869,123.106761 326.07164,123.66336 C326.622764,124.21996 327.054357,124.91799 327.36733,125.758364 C327.680303,126.59965 327.834508,127.605178 327.829034,128.775862 L327.769724,142.169832 L326.250481,142.163444 Z M349.708862,132.388283 L333.65599,132.317111 C333.650515,133.583603 333.834832,134.763411 334.209852,135.85836 C334.584872,136.951485 335.134172,137.896791 335.859576,138.69063 C336.584067,139.486293 337.491963,140.107677 338.58235,140.555694 C339.672737,141.00371 340.946529,141.230912 342.402811,141.2373 C343.416552,141.241862 344.413869,141.126892 345.397498,140.894215 C346.379303,140.661539 347.299061,140.341266 348.154946,139.932485 C348.249842,140.187061 348.327401,140.408788 348.39036,140.598579 L348.577414,141.264673 C347.68868,141.704478 346.689539,142.03935 345.580902,142.272027 C344.471354,142.504704 343.410165,142.619673 342.397337,142.614199 C340.687391,142.607811 339.18366,142.339549 337.88797,141.811236 C336.591367,141.282923 335.519229,140.558431 334.668818,139.635936 C333.816582,138.713441 333.1733,137.627616 332.73532,136.373899 C332.296428,135.121094 332.082,133.782519 332.088387,132.357259 C332.094774,130.932912 332.313764,129.596162 332.748094,128.347007 C333.180599,127.097852 333.801983,126.008377 334.614071,125.07767 C335.425246,124.148788 336.394276,123.423384 337.521162,122.90602 C338.646222,122.388657 339.906327,122.133168 341.300562,122.138643 C342.693886,122.14503 343.911104,122.396869 344.954044,122.891421 C345.996071,123.386886 346.87203,124.063017 347.58101,124.92164 C348.28999,125.77935 348.823778,126.795828 349.182374,127.968337 C349.54097,129.141758 349.717987,130.409162 349.711599,131.770549 L349.708862,132.388283 Z M348.147646,131.051532 C348.120273,130.006768 347.949643,129.024051 347.638495,128.104293 C347.325522,127.184535 346.88663,126.390697 346.319081,125.72369 C345.752444,125.055771 345.04164,124.522896 344.189404,124.122327 C343.335343,123.723582 342.338939,123.521017 341.199279,123.516455 C340.121667,123.51098 339.138949,123.697121 338.25204,124.073054 C337.363306,124.448987 336.600492,124.968175 335.965421,125.63062 C335.328525,126.292152 334.818461,127.08234 334.434316,127.998448 C334.051084,128.915468 333.809283,129.911872 333.708,130.98766 L348.147646,131.051532 Z M362.998811,123.612263 C361.636512,123.701684 360.288811,124.162475 358.95571,124.995549 C357.621697,125.828623 356.539522,127.08234 355.709185,128.7567 L355.648963,142.293013 L354.129721,142.286626 L354.217316,122.57571 L355.689111,122.582098 L355.670862,126.71462 C356.532222,125.388818 357.597061,124.285657 358.867202,123.404222 C360.137343,122.5237 361.51698,122.085721 363.005199,122.09302 L362.998811,123.612263 Z M381.3967,140.839468 C380.507054,141.406104 379.530724,141.869633 378.469535,142.228229 C377.406522,142.586825 376.25865,142.763842 375.023182,142.759279 C373.566899,142.752892 372.221936,142.485542 370.990118,141.957229 C369.756475,141.429828 368.698936,140.705337 367.818414,139.781929 C366.935155,138.860347 366.242599,137.780909 365.743485,136.543616 C365.241633,135.306323 364.993444,133.975047 364.999832,132.5507 C365.006219,131.125441 365.257145,129.789603 365.753522,128.540448 C366.249899,127.292205 366.952492,126.202731 367.858562,125.272936 C368.763721,124.342229 369.835859,123.61135 371.073152,123.078475 C372.310444,122.545599 373.657232,122.281899 375.114428,122.288286 C376.349896,122.293761 377.49503,122.481727 378.555306,122.849448 C379.613758,123.218993 380.585525,123.690734 381.469697,124.263758 L380.656697,125.447215 C379.866508,124.938064 379.022485,124.513771 378.120976,124.177987 C377.221293,123.84129 376.215764,123.67066 375.10804,123.666098 C373.841549,123.660623 372.684552,123.885088 371.637963,124.339492 C370.590461,124.793896 369.693515,125.40798 368.9453,126.179919 C368.197997,126.952771 367.616761,127.876178 367.20068,128.950141 C366.784599,130.025929 366.573822,131.180189 366.568347,132.414744 C366.562872,133.650212 366.763613,134.814508 367.170569,135.908545 C367.5757,137.002582 368.149636,137.955189 368.890552,138.766364 C369.630556,139.576626 370.522027,140.213522 371.565879,140.677963 C372.607906,141.141492 373.763077,141.375993 375.029569,141.381468 C376.137293,141.38603 377.144646,141.224525 378.047067,140.89604 C378.951313,140.567556 379.799899,140.152387 380.59465,139.64871 L381.3967,140.839468 Z M401.666953,132.61731 L385.613168,132.547051 C385.607694,133.813542 385.79201,134.99335 386.16703,136.087387 C386.542963,137.181424 387.09135,138.126731 387.816754,138.920569 C388.541246,139.716232 389.449141,140.337616 390.539529,140.784721 C391.630828,141.23365 392.903707,141.459939 394.360902,141.467239 C395.373731,141.470889 396.371047,141.356832 397.354677,141.124155 C398.336481,140.890566 399.256239,140.570293 400.113037,140.162424 C400.20702,140.417 400.284579,140.638727 400.348451,140.828519 L400.534593,141.4937 C399.646771,141.933505 398.646717,142.26929 397.538081,142.501966 C396.428532,142.734643 395.367343,142.8487 394.354515,142.844138 C392.644569,142.836838 391.141751,142.569488 389.846061,142.041175 C388.549458,141.511949 387.476407,140.78837 386.625997,139.864963 C385.774673,138.94338 385.130478,137.856643 384.692498,136.603838 C384.254519,135.351034 384.039178,134.011545 384.045566,132.587199 C384.051953,131.161939 384.270943,129.826101 384.705273,128.576946 C385.137778,127.327791 385.759162,126.238316 386.572162,125.307609 C387.383337,124.377815 388.351455,123.653323 389.47834,123.13596 C390.604313,122.618596 391.864418,122.362195 393.257741,122.368582 C394.651064,122.37497 395.868283,122.625896 396.911222,123.12136 C397.953249,123.616825 398.829209,124.292956 399.539101,125.151579 C400.247168,126.00929 400.780956,127.024855 401.140465,128.198276 C401.498148,129.371697 401.675165,130.639101 401.66969,132.000488 L401.666953,132.61731 Z M400.104825,131.280559 C400.078364,130.235795 399.906822,129.25399 399.595673,128.33332 C399.283613,127.414475 398.843808,126.620636 398.276259,125.95363 C397.709623,125.28571 396.998818,124.752835 396.146582,124.352266 C395.292522,123.953522 394.29703,123.750956 393.15737,123.745481 C392.079758,123.740919 391.09704,123.926148 390.209219,124.302993 C389.320485,124.678926 388.558582,125.198114 387.922599,125.859646 C387.285704,126.522091 386.77564,127.311367 386.391495,128.227475 C386.009175,129.145407 385.766461,130.140899 385.666091,131.216687 L400.104825,131.280559 L400.104825,131.280559 Z"
                      id="Fill-1" sketch:type="MSShapeGroup"></path>
            </g>
        </g>
    </g>
</svg>